<svg width="80" height="80" viewBox="0 0 80 80" fill="none" xmlns="http://www.w3.org/2000/svg">
<path opacity="0.2" d="M67.3313 67.5H12.6688C8.72501 67.5 6.25001 63.3718 8.16563 60.0281L35.4969 12.5687C37.4656 9.13123 42.5344 9.13123 44.5031 12.5687L71.8344 60.0281C73.75 63.3718 71.275 67.5 67.3313 67.5Z" fill="#F8AD30"/>
<path d="M74 58.7781L46.6719 11.3187C45.989 10.156 45.0141 9.1919 43.8438 8.52203C42.6735 7.85216 41.3484 7.49976 40 7.49976C38.6515 7.49976 37.3265 7.85216 36.1562 8.52203C34.9859 9.1919 34.011 10.156 33.3281 11.3187L6 58.7781C5.34292 59.9027 4.99664 61.1818 4.99664 62.4843C4.99664 63.7869 5.34292 65.066 6 66.1906C6.67415 67.3603 7.6474 68.3297 8.81987 68.9991C9.99235 69.6686 11.3218 70.014 12.6719 70H67.3281C68.6771 70.0129 70.0053 69.6669 71.1766 68.9975C72.3478 68.3282 73.3201 67.3594 73.9937 66.1906C74.6518 65.0665 74.9991 63.7877 75.0002 62.4852C75.0013 61.1827 74.6561 59.9033 74 58.7781ZM69.6656 63.6875C69.4274 64.0939 69.0854 64.4296 68.6746 64.6602C68.2638 64.8909 67.7991 65.0081 67.3281 65H12.6719C12.2009 65.0081 11.7362 64.8909 11.3254 64.6602C10.9146 64.4296 10.5726 64.0939 10.3344 63.6875C10.1186 63.3221 10.0047 62.9055 10.0047 62.4812C10.0047 62.0569 10.1186 61.6403 10.3344 61.275L37.6625 13.8156C37.9055 13.4111 38.2491 13.0764 38.6598 12.8441C39.0705 12.6117 39.5344 12.4896 40.0062 12.4896C40.4781 12.4896 40.942 12.6117 41.3527 12.8441C41.7634 13.0764 42.1069 13.4111 42.35 13.8156L69.6781 61.275C69.892 61.6414 70.0037 62.0586 70.0015 62.4829C69.9993 62.9072 69.8833 63.3232 69.6656 63.6875ZM37.5 45V32.5C37.5 31.8369 37.7634 31.201 38.2322 30.7322C38.7011 30.2634 39.337 30 40 30C40.663 30 41.2989 30.2634 41.7678 30.7322C42.2366 31.201 42.5 31.8369 42.5 32.5V45C42.5 45.663 42.2366 46.2989 41.7678 46.7677C41.2989 47.2366 40.663 47.5 40 47.5C39.337 47.5 38.7011 47.2366 38.2322 46.7677C37.7634 46.2989 37.5 45.663 37.5 45ZM43.75 56.25C43.75 56.9916 43.5301 57.7167 43.118 58.3333C42.7059 58.95 42.1203 59.4307 41.4351 59.7145C40.7498 59.9983 39.9958 60.0726 39.2684 59.9279C38.541 59.7832 37.8728 59.4261 37.3483 58.9016C36.8239 58.3772 36.4667 57.709 36.3221 56.9815C36.1774 56.2541 36.2516 55.5001 36.5354 54.8149C36.8193 54.1297 37.2999 53.544 37.9166 53.132C38.5333 52.7199 39.2583 52.5 40 52.5C40.9946 52.5 41.9484 52.8951 42.6516 53.5983C43.3549 54.3016 43.75 55.2554 43.75 56.25Z" fill="#F8AD30"/>
</svg>
